<svg id="visual" viewBox="0 0 960 440" width="960" height="440" xmlns="http://www.w3.org/2000/svg" xmlns:xlink="http://www.w3.org/1999/xlink" version="1.1"><rect x="0" y="0" width="960" height="440" fill="#0a0701"></rect><path d="M0 270L22.8 277.3C45.7 284.7 91.3 299.3 137 306.5C182.7 313.7 228.3 313.3 274 307.7C319.7 302 365.3 291 411.2 285.7C457 280.3 503 280.7 548.8 285.5C594.7 290.3 640.3 299.7 686 303.7C731.7 307.7 777.3 306.3 823 308.2C868.7 310 914.3 315 937.2 317.5L960 320L960 441L937.2 441C914.3 441 868.7 441 823 441C777.3 441 731.7 441 686 441C640.3 441 594.7 441 548.8 441C503 441 457 441 411.2 441C365.3 441 319.7 441 274 441C228.3 441 182.7 441 137 441C91.3 441 45.7 441 22.8 441L0 441Z" fill="#ffc15e"></path><path d="M0 319L22.8 316.7C45.7 314.3 91.3 309.7 137 304.8C182.7 300 228.3 295 274 297.8C319.7 300.7 365.3 311.3 411.2 313.2C457 315 503 308 548.8 311.7C594.7 315.3 640.3 329.7 686 328.3C731.7 327 777.3 310 823 301.7C868.7 293.3 914.3 293.7 937.2 293.8L960 294L960 441L937.2 441C914.3 441 868.7 441 823 441C777.3 441 731.7 441 686 441C640.3 441 594.7 441 548.8 441C503 441 457 441 411.2 441C365.3 441 319.7 441 274 441C228.3 441 182.7 441 137 441C91.3 441 45.7 441 22.8 441L0 441Z" fill="#f3b24e"></path><path d="M0 336L22.8 334.3C45.7 332.7 91.3 329.3 137 332C182.7 334.7 228.3 343.3 274 342.7C319.7 342 365.3 332 411.2 330.3C457 328.7 503 335.3 548.8 343.8C594.7 352.3 640.3 362.7 686 366.5C731.7 370.3 777.3 367.7 823 362C868.7 356.3 914.3 347.7 937.2 343.3L960 339L960 441L937.2 441C914.3 441 868.7 441 823 441C777.3 441 731.7 441 686 441C640.3 441 594.7 441 548.8 441C503 441 457 441 411.2 441C365.3 441 319.7 441 274 441C228.3 441 182.7 441 137 441C91.3 441 45.7 441 22.8 441L0 441Z" fill="#e7a43d"></path><path d="M0 382L22.8 384.3C45.7 386.7 91.3 391.3 137 387.5C182.7 383.7 228.3 371.3 274 369C319.7 366.7 365.3 374.3 411.2 378.7C457 383 503 384 548.8 385.7C594.7 387.3 640.3 389.7 686 389.7C731.7 389.7 777.3 387.3 823 384.3C868.7 381.3 914.3 377.7 937.2 375.8L960 374L960 441L937.2 441C914.3 441 868.7 441 823 441C777.3 441 731.7 441 686 441C640.3 441 594.7 441 548.8 441C503 441 457 441 411.2 441C365.3 441 319.7 441 274 441C228.3 441 182.7 441 137 441C91.3 441 45.7 441 22.8 441L0 441Z" fill="#db952c"></path><path d="M0 418L22.8 413.7C45.7 409.3 91.3 400.7 137 395.8C182.7 391 228.3 390 274 391.2C319.7 392.3 365.3 395.7 411.2 396.8C457 398 503 397 548.8 399.8C594.7 402.7 640.3 409.3 686 410.2C731.7 411 777.3 406 823 401.5C868.7 397 914.3 393 937.2 391L960 389L960 441L937.2 441C914.3 441 868.7 441 823 441C777.3 441 731.7 441 686 441C640.3 441 594.7 441 548.8 441C503 441 457 441 411.2 441C365.3 441 319.7 441 274 441C228.3 441 182.7 441 137 441C91.3 441 45.7 441 22.8 441L0 441Z" fill="#cf8719"></path></svg>