<svg xmlns="http://www.w3.org/2000/svg" version="1.1" xmlns:xlink="http://www.w3.org/1999/xlink" xmlns:svgjs="http://svgjs.com/svgjs" width="1440" height="560" preserveAspectRatio="none" viewBox="0 0 1440 560"><g mask="url(&quot;#SvgjsMask1006&quot;)" fill="none"><rect width="1440" height="560" x="0" y="0" fill="rgba(42, 42, 42, 1)"></rect><path d="M0 42.78C10 14.59 20.24 9 49.68 0C90.24 -12.39 94.84 0 140 0C210 0 210 0 280 0C350 0 350 0 420 0C453.16 0 486.32 -10.82 486.32 0C486.32 13.41 442.26 16.27 420 48.46C393.85 86.27 412.52 98.11 389.49 140C348.88 213.88 322.71 203.33 292.73 280C267.97 343.33 286.37 350 280 420C280 420 280 420 280 420C273.38 490 303.57 523.19 266.76 560C233.57 593.19 203.38 560 140 560C70 560 35 595 0 560C-35 525 0 490 0 420C0 350 0 350 0 280C0 210 0 210 0 140C0 91.39 -14.84 84.59 0 42.78" stroke="rgba(255, 193, 94, 1)" stroke-width="2"></path><path d="M140 127.27C135.93 127.27 129.63 135.08 129.63 140C129.63 143.31 135.15 143.73 140 143.73C142.55 143.73 144.44 142.48 144.44 140C144.44 134.25 143.34 127.27 140 127.27" stroke="rgba(255, 193, 94, 1)" stroke-width="2"></path><path d="M539 140C548.49 123.24 554.35 125.85 560 107.69C576.14 55.85 548.72 26.05 582.58 0C618.72 -27.8 641.29 0 700 0C770 0 770 0 840 0C910 0 910 0 980 0C1050 0 1050 0 1120 0C1190 0 1190 0 1260 0C1312.11 0 1364.22 -21.42 1364.22 0C1364.22 30.12 1313.28 52.83 1260 103.08C1239.06 122.83 1215.79 121.23 1215.79 140C1215.79 159.23 1236.94 160.7 1260 179.07C1324.8 230.7 1332.92 224.73 1391.52 280C1402.92 290.75 1386.11 307.75 1400 311.11C1460.35 325.72 1499.83 284.71 1540 315.95C1569.83 339.15 1540 367.98 1540 420C1540 490 1575 525 1540 560C1505 595 1470 560 1400 560C1330 560 1330 560 1260 560C1190 560 1190 560 1120 560C1072.79 560 1070.06 569.29 1025.58 560C1000.06 554.67 1000.9 530.75 980 530.75C964.68 530.75 971.33 556.2 953.15 560C901.33 570.83 896.58 560 840 560C787.05 560 779.38 575.1 734.1 560C709.38 551.76 716.45 513.33 700 513.33C684.12 513.33 693.07 552.12 669.43 560C623.07 575.46 614.71 560 560 560C490 560 490 560 420 560C404.44 560 399.34 570.45 388.89 560C329.34 500.45 271.7 475.06 280 420C287.25 371.9 361.11 398.88 420 353.68C452.32 328.88 441.74 317.14 462.42 280C501.24 210.3 499.7 209.4 539 140" stroke="rgba(255, 193, 94, 1)" stroke-width="2"></path><path d="M1540 71.37C1518.06 71.37 1465.71 20.73 1465.71 0C1465.71 -14.95 1521.06 -18.2 1540 0C1558.2 17.48 1555.2 71.37 1540 71.37" stroke="rgba(255, 193, 94, 1)" stroke-width="2"></path><path d="M700 227.5C678.02 235.94 683.85 256.73 683.85 280C683.85 288.1 690.66 288.76 700 290.24C768.74 301.12 771.85 308.34 840 304.71C868.1 303.22 892.5 297.84 892.5 280C892.5 255.49 874.89 229.52 840 220C778.64 203.27 756.1 205.94 700 227.5" stroke="rgba(255, 193, 94, 1)" stroke-width="2"></path><path d="M200 140C205.19 77.93 134.23 37.93 155.91 0C174.23 -32.07 217.95 0 280 0C329.63 0 366.1 -28.54 379.27 0C398.41 41.46 373.23 75.44 344.62 140C323.6 187.44 312.97 182.53 280 224C257.32 252.53 245.92 246.87 233.33 280C208.68 344.87 209.02 349.5 205.53 420C202.09 489.5 240.4 515.27 219.46 560C207.63 585.27 179.73 560 140 560C70 560 35 595 0 560C-35 525 0 490 0 420C0 350 0 350 0 280C0 210 -33.93 161.72 0 140C36.07 116.92 74.5 190.4 140 190.4C174.5 190.4 197.23 173.13 200 140" stroke="rgba(255, 193, 94, 1)" stroke-width="2"></path><path d="M700 80.43C662.93 80.43 639.03 25.07 639.03 0C639.03 -15.14 669.51 0 700 0C759.07 0 818.13 -18.2 818.13 0C818.13 22.02 752.48 80.43 700 80.43" stroke="rgba(255, 193, 94, 1)" stroke-width="2"></path><path d="M1008.82 140C1008.82 93.49 1067.7 94.54 1120 43.08C1138.84 24.54 1128.15 7.06 1151.11 0C1198.15 -14.48 1205.55 0 1260 0C1292.66 0 1325.33 -13.43 1325.33 0C1325.33 18.88 1294.12 33.91 1260 64.62C1216.33 103.91 1207.99 96.46 1169.74 140C1137.99 176.15 1153.15 224 1120 224C1072.69 224 1008.82 183.95 1008.82 140" stroke="rgba(255, 193, 94, 1)" stroke-width="2"></path><path d="M1540 2.75C1539.16 2.75 1537.14 0.8 1537.14 0C1537.14 -0.58 1539.27 -0.7 1540 0C1540.7 0.67 1540.59 2.75 1540 2.75" stroke="rgba(255, 193, 94, 1)" stroke-width="2"></path><path d="M1165.82 280C1211.47 247.91 1214.2 219.77 1260 219.77C1300.53 219.77 1320.51 238.59 1338.48 280C1363.96 338.71 1367.45 358.89 1346.9 420C1328.21 475.56 1309.86 475.36 1260 513.33C1217.95 545.36 1213.06 543.34 1163.08 560C1143.06 566.67 1141.54 560 1120 560C1113.49 560 1112.54 563.24 1106.98 560C1042.54 522.49 1038.21 478.51 980 478.51C937.33 478.51 949.25 534.37 905.21 560C879.25 575.11 872.61 560 840 560C809.49 560 778.97 577.62 778.97 560C778.97 524.73 804.8 503.24 840 454.22C855.06 433.24 859.37 436.66 879.49 420C929.37 378.71 922.52 362.66 980 338.33C1042.78 311.75 1054.65 338.69 1120 318.18C1147.56 309.53 1141.47 297.12 1165.82 280" stroke="rgba(255, 193, 94, 1)" stroke-width="2"></path><path d="M463.92 420C488.49 346.62 501.3 298.61 560 287.57C619.34 276.41 629.53 332.37 700 375.61C737.44 398.58 775.83 400.29 775.83 420C775.83 438.45 728.52 424.7 700 451.93C655.21 494.7 674.78 524.81 629.2 560C604.78 578.85 594.6 560 560 560C514.39 560 487.73 587.6 468.79 560C439.69 517.6 442.88 482.83 463.92 420" stroke="rgba(255, 193, 94, 1)" stroke-width="2"></path><path d="M1437.56 420C1437.56 383.76 1505.5 363.24 1540 363.24C1556.72 363.24 1540 391.62 1540 420C1540 473.85 1561.52 527.69 1540 527.69C1510.3 527.69 1437.56 465.99 1437.56 420" stroke="rgba(255, 193, 94, 1)" stroke-width="2"></path><path d="M255.56 140C237.75 73.76 226.16 53.23 235.45 0C238.38 -16.77 257.73 0 280 0C297.82 0 313.65 -14.13 315.64 0C323.52 55.87 314.23 72.64 299.74 140C296.41 155.48 290.55 165.67 280 165.67C268.46 165.67 260.02 156.6 255.56 140" stroke="rgba(255, 193, 94, 1)" stroke-width="2"></path><path d="M700 5.96C697.25 5.96 695.48 1.86 695.48 0C695.48 -1.12 697.74 0 700 0C704.38 0 708.75 -1.35 708.75 0C708.75 1.63 703.89 5.96 700 5.96" stroke="rgba(255, 193, 94, 1)" stroke-width="2"></path><path d="M1111.76 140C1111.76 136.55 1116.57 132.82 1120 132.82C1122.53 132.82 1123.68 136.47 1123.68 140C1123.68 143.17 1122.45 146.22 1120 146.22C1116.49 146.22 1111.76 143.25 1111.76 140" stroke="rgba(255, 193, 94, 1)" stroke-width="2"></path><path d="M1260 26.15C1239.57 26.15 1215.93 7.03 1215.93 0C1215.93 -6.05 1237.97 0 1260 0C1273.22 0 1286.44 -5.43 1286.44 0C1286.44 7.64 1274.83 26.15 1260 26.15" stroke="rgba(255, 193, 94, 1)" stroke-width="2"></path><path d="M0 240C54.45 223.3 75.98 223.21 140 237.07C168.34 243.21 184.72 253.31 184.72 280C184.72 336.7 183.58 385.5 140 403.85C91.22 424.39 45.82 398.31 0 357.78C-24.18 336.39 0 318.89 0 280C0 260 -15.55 244.77 0 240" stroke="rgba(255, 193, 94, 1)" stroke-width="2"></path><path d="M1229.45 280C1229.45 264.92 1245.14 260.47 1260 260.47C1273.14 260.47 1285.45 266.05 1285.45 280C1285.45 320.02 1273.88 368.42 1260 368.42C1245.88 368.42 1229.45 318.9 1229.45 280" stroke="rgba(255, 193, 94, 1)" stroke-width="2"></path><path d="M532.55 420C537.32 397.79 542.37 382.16 560 382.16C587.92 382.16 618.73 389.84 623.64 420C633.21 478.76 615.47 501.71 588.97 560C583.65 571.71 574.49 560 560 560C540.91 560 524.75 574.96 521.82 560C511.03 504.96 518.23 486.71 532.55 420" stroke="rgba(255, 193, 94, 1)" stroke-width="2"></path><path d="M969.23 420C969.23 416.04 973.44 413.37 980 411.25C1048.83 388.98 1051.66 368.79 1120 371.21C1175.33 373.17 1227.33 390.98 1227.33 420C1227.33 451.97 1176.35 491.75 1120 493.18C1052.69 494.89 1049.78 460.14 980 426.27C974.4 423.55 969.23 423.55 969.23 420" stroke="rgba(255, 193, 94, 1)" stroke-width="2"></path><path d="M1522.93 420C1522.93 413.96 1534.25 410.54 1540 410.54C1542.79 410.54 1540 415.27 1540 420C1540 428.98 1543.59 437.95 1540 437.95C1535.05 437.95 1522.93 427.67 1522.93 420" stroke="rgba(255, 193, 94, 1)" stroke-width="2"></path><path d="M0 482.22C45.66 443.41 93.34 419.92 140 441C179.42 458.81 172.16 512.81 172.16 560C172.16 572.31 156.08 560 140 560C70 560 45 585 0 560C-25 546.11 -24.34 502.91 0 482.22" stroke="rgba(255, 193, 94, 1)" stroke-width="2"></path><path d="M823.85 560C823.85 550.66 831.72 532 840 532C848.43 532 857.26 550.82 857.26 560C857.26 564.82 848.63 560 840 560C831.92 560 823.85 564.66 823.85 560" stroke="rgba(255, 193, 94, 1)" stroke-width="2"></path></g><defs><mask id="SvgjsMask1006"><rect width="1440" height="560" fill="#ffffff"></rect></mask></defs></svg>