<svg id="visual" viewBox="0 0 900 60" width="900" height="60" xmlns="http://www.w3.org/2000/svg" xmlns:xlink="http://www.w3.org/1999/xlink" version="1.1"><path d="M0 24L16.7 27C33.3 30 66.7 36 100 35.8C133.3 35.7 166.7 29.3 200 28.5C233.3 27.7 266.7 32.3 300 33C333.3 33.7 366.7 30.3 400 30.2C433.3 30 466.7 33 500 32.5C533.3 32 566.7 28 600 25.7C633.3 23.3 666.7 22.7 700 23.8C733.3 25 766.7 28 800 31C833.3 34 866.7 37 883.3 38.5L900 40L900 61L883.3 61C866.7 61 833.3 61 800 61C766.7 61 733.3 61 700 61C666.7 61 633.3 61 600 61C566.7 61 533.3 61 500 61C466.7 61 433.3 61 400 61C366.7 61 333.3 61 300 61C266.7 61 233.3 61 200 61C166.7 61 133.3 61 100 61C66.7 61 33.3 61 16.7 61L0 61Z" fill="#fff" stroke-linecap="round" stroke-linejoin="miter"></path></svg>