<svg id="visual" viewBox="0 0 900 60" width="900" height="60" xmlns="http://www.w3.org/2000/svg" xmlns:xlink="http://www.w3.org/1999/xlink" version="1.1"><path d="M0 29L13.7 30.8C27.3 32.7 54.7 36.3 82 36.7C109.3 37 136.7 34 163.8 30.2C191 26.3 218 21.7 245.2 21.2C272.3 20.7 299.7 24.3 327 27.8C354.3 31.3 381.7 34.7 409 35.3C436.3 36 463.7 34 491 33.7C518.3 33.3 545.7 34.7 573 33.2C600.3 31.7 627.7 27.3 654.8 24.7C682 22 709 21 736.2 19.8C763.3 18.7 790.7 17.3 818 17.7C845.3 18 872.7 20 886.3 21L900 22L900 61L886.3 61C872.7 61 845.3 61 818 61C790.7 61 763.3 61 736.2 61C709 61 682 61 654.8 61C627.7 61 600.3 61 573 61C545.7 61 518.3 61 491 61C463.7 61 436.3 61 409 61C381.7 61 354.3 61 327 61C299.7 61 272.3 61 245.2 61C218 61 191 61 163.8 61C136.7 61 109.3 61 82 61C54.7 61 27.3 61 13.7 61L0 61Z" fill="#0066FF" stroke-linecap="round" stroke-linejoin="miter"></path></svg>